<?xml version="1.0" standalone="no"?>
<!DOCTYPE svg PUBLIC "-//W3C//DTD SVG 20010904//EN"
 "http://www.w3.org/TR/2001/REC-SVG-20010904/DTD/svg10.dtd">
<svg version="1.0" xmlns="http://www.w3.org/2000/svg"
 width="520.000000pt" height="520.000000pt" viewBox="0 0 520.000000 520.000000"
 preserveAspectRatio="xMidYMid meet">
<metadata>
Created by potrace 1.11, written by Peter Selinger 2001-2013
</metadata>
<g transform="translate(0.000000,520.000000) scale(0.100000,-0.100000)"
fill="#000000" stroke="none">
<path d="M733 3268 c1 -392 6 -725 10 -739 51 -193 105 -296 213 -403 157
-158 371 -237 638 -238 97 -1 138 3 219 18 190 35 380 143 491 280 58 71 120
196 148 299 21 78 22 97 24 788 l3 707 -244 0 c-135 0 -245 -3 -246 -7 -1 -5
-2 -300 -4 -658 -1 -357 -5 -661 -8 -675 -28 -122 -83 -207 -166 -257 -68 -41
-145 -57 -246 -51 -191 12 -315 140 -341 353 -1 11 -3 307 -3 658 l-1 637
-245 0 -246 0 4 -712z"/>
<path d="M2691 3958 c6 -12 35 -55 64 -97 28 -42 145 -213 260 -381 115 -168
232 -340 262 -383 31 -45 50 -83 46 -90 -4 -7 -160 -244 -348 -527 -188 -283
-344 -521 -349 -527 -6 -10 54 -13 286 -13 l293 0 180 302 c99 166 193 325
210 355 16 29 34 52 39 50 5 -2 106 -160 226 -352 l217 -350 302 -3 c165 -1
301 0 301 4 0 3 -68 105 -152 227 -225 328 -323 472 -457 669 l-120 176 304
454 c167 249 308 458 312 463 5 6 12 18 16 28 6 16 -11 17 -278 17 l-285 0
-20 -37 c-11 -21 -25 -45 -30 -53 -6 -8 -74 -124 -153 -256 -78 -133 -149
-251 -157 -263 -14 -21 -23 -9 -204 294 l-189 315 -294 0 -294 0 12 -22z"/>
<path d="M1995 1672 c-93 -20 -153 -88 -151 -172 2 -83 41 -121 171 -170 97
-36 125 -61 125 -109 -1 -103 -157 -138 -236 -53 l-19 20 -32 -28 -32 -29 35
-30 c83 -68 243 -70 315 -5 55 49 71 133 39 200 -24 49 -53 68 -160 108 -91
33 -120 58 -120 101 0 89 105 127 200 74 l40 -23 25 24 c14 13 25 26 25 30 0
4 -22 19 -50 34 -48 26 -126 39 -175 28z"/>
<path d="M2753 1669 c-89 -16 -177 -79 -212 -152 -85 -178 -13 -383 157 -448
92 -35 239 -27 325 17 l27 15 0 145 0 145 -107 -3 -108 -3 -2 -32 c-1 -35 2
-37 67 -35 65 2 67 0 66 -89 -1 -77 -2 -82 -26 -91 -45 -18 -181 -14 -218 5
-104 56 -148 174 -112 301 41 146 220 205 351 114 26 -17 27 -17 53 9 14 14
26 29 26 33 0 11 -59 45 -101 58 -46 15 -135 20 -186 11z"/>
<path d="M784 1662 l-31 -3 0 -301 0 -300 146 5 c170 5 217 18 286 79 54 47
80 94 93 166 17 97 -12 196 -78 262 -32 32 -92 68 -124 74 -6 2 -27 6 -46 10
-38 8 -197 13 -246 8z m293 -104 c88 -44 133 -146 109 -248 -20 -84 -69 -137
-147 -161 -35 -10 -175 -20 -194 -13 -8 3 -13 342 -6 443 2 24 178 8 238 -21z"/>
<path d="M1524 1662 l-151 -3 0 -299 0 -300 199 0 199 0 -3 38 -3 37 -152 0
c-139 0 -153 1 -154 17 0 10 0 47 0 83 0 36 0 73 0 83 1 17 12 18 141 17 l140
-1 0 38 0 38 -135 -1 c-74 0 -138 2 -142 4 -5 3 -7 27 -6 54 1 26 2 65 2 86
l1 37 133 -1 c72 0 140 0 150 0 13 1 17 10 17 36 0 19 -3 35 -7 36 -36 3 -100
4 -229 1z"/>
<path d="M3599 1580 c0 -47 0 -157 0 -245 0 -88 -3 -153 -6 -145 -3 8 -9 17
-13 20 -4 3 -21 26 -36 52 -16 26 -81 126 -144 223 l-115 175 -56 0 -56 0 0
-300 0 -300 42 0 42 0 1 203 c0 111 1 222 1 246 l1 44 58 -90 c31 -50 102
-161 157 -247 l100 -156 51 0 c33 0 53 5 56 13 3 10 2 549 -1 582 -1 6 -19 10
-41 10 l-40 0 -1 -85z"/>
<path d="M3859 1662 l-56 -3 0 -299 0 -300 197 0 198 0 4 35 c2 19 -1 36 -7
38 -5 2 -76 3 -157 2 -161 -1 -150 -5 -150 55 0 11 0 48 1 83 l1 63 138 -1
137 0 3 37 3 37 -137 0 c-75 0 -138 2 -140 3 -3 4 -7 99 -5 145 l1 33 108 -1
c210 -1 192 -4 192 36 0 21 -5 35 -12 36 -54 2 -274 3 -319 1z"/>
<path d="M4344 1660 l-51 -5 0 -298 0 -298 41 3 41 3 2 100 c2 185 -3 165 46
165 l43 0 67 -118 c92 -162 84 -154 139 -150 l47 3 -79 130 c-44 72 -79 132
-80 135 0 3 22 15 48 27 111 51 124 202 23 268 -48 32 -171 46 -287 35z m210
-84 c45 -19 65 -50 59 -89 -6 -40 -27 -63 -67 -76 -37 -12 -152 -19 -161 -9
-3 3 -7 47 -8 97 l-2 91 73 0 c40 0 88 -6 106 -14z"/>
<path d="M2324 1363 l1 -298 41 -3 42 -3 0 300 0 301 -43 0 -42 0 1 -297z"/>
</g>
</svg>
