<?xml version="1.0" encoding="UTF-8"?>
<svg width="1220px" height="861px" viewBox="0 0 1220 861" version="1.1" xmlns="http://www.w3.org/2000/svg" xmlns:xlink="http://www.w3.org/1999/xlink">
    <!-- Generator: Sketch 63.1 (92452) - https://sketch.com -->
    <title>Path</title>
    <desc>Created with Sketch.</desc>
    <g id="Homepage-Design" stroke="none" stroke-width="1" fill="none" fill-rule="evenodd" opacity="0.8">
        <g id="Desktop-HD" transform="translate(-110.000000, -579.000000)" fill="#C2F7FF" fill-rule="nonzero">
            <g id="blob-shape-3" transform="translate(110.000000, 579.000000)">
                <path d="M1009.04029,2.2758587 C1120.53159,19.5837583 1191.11601,137.969792 1212.7726,256.125053 C1234.42918,374.049542 1207.15793,491.512488 1134.43458,568.821106 C1061.9786,646.129724 943.535803,683.284015 845.680127,733.59231 C747.82445,783.900605 670.288531,847.132132 582.860098,858.901503 C495.431666,870.670875 397.843354,831.208864 290.362529,783.669833 C182.614338,736.130802 64.7062688,680.745523 21.1257351,596.975289 C-22.7221638,513.205055 8.02483851,401.049866 55.6158507,299.510188 C103.206863,197.97051 168.176616,107.277116 260.417622,84.8922328 C352.925994,62.2765773 472.705621,107.73866 609.061892,88.5845847 C745.150797,69.1997372 897.548983,-14.8012689 1009.04029,2.2758587 Z" id="Path"></path>
            </g>
        </g>
    </g>
</svg>